<svg width="37" height="37" viewBox="0 0 37 37" fill="none" xmlns="http://www.w3.org/2000/svg">
<path d="M28.2917 0.875H4.79167C2.61792 0.875 0.875 2.6375 0.875 4.79167V32.2083C0.875 34.3625 2.61792 36.125 4.79167 36.125H32.2083C34.3625 36.125 36.125 34.3625 36.125 32.2083V8.70833L28.2917 0.875ZM18.5 32.2083C15.2492 32.2083 12.625 29.5842 12.625 26.3333C12.625 23.0825 15.2492 20.4583 18.5 20.4583C21.7508 20.4583 24.375 23.0825 24.375 26.3333C24.375 29.5842 21.7508 32.2083 18.5 32.2083ZM24.375 12.625H4.79167V4.79167H24.375V12.625Z" fill="black"/>
</svg>
