<svg width="11" height="17" viewBox="0 0 11 17" fill="none" xmlns="http://www.w3.org/2000/svg">
<path d="M4.4 14.875C4.4 16.0438 3.41 17 2.2 17C0.99 17 0 16.0438 0 14.875C0 13.7063 0.99 12.75 2.2 12.75C3.41 12.75 4.4 13.7063 4.4 14.875ZM2.2 6.375C0.99 6.375 0 7.33125 0 8.5C0 9.66875 0.99 10.625 2.2 10.625C3.41 10.625 4.4 9.66875 4.4 8.5C4.4 7.33125 3.41 6.375 2.2 6.375ZM2.2 0C0.99 0 0 0.95625 0 2.125C0 3.29375 0.99 4.25 2.2 4.25C3.41 4.25 4.4 3.29375 4.4 2.125C4.4 0.95625 3.41 0 2.2 0ZM8.8 4.25C10.01 4.25 11 3.29375 11 2.125C11 0.95625 10.01 0 8.8 0C7.59 0 6.6 0.95625 6.6 2.125C6.6 3.29375 7.59 4.25 8.8 4.25ZM8.8 6.375C7.59 6.375 6.6 7.33125 6.6 8.5C6.6 9.66875 7.59 10.625 8.8 10.625C10.01 10.625 11 9.66875 11 8.5C11 7.33125 10.01 6.375 8.8 6.375ZM8.8 12.75C7.59 12.75 6.6 13.7063 6.6 14.875C6.6 16.0438 7.59 17 8.8 17C10.01 17 11 16.0438 11 14.875C11 13.7063 10.01 12.75 8.8 12.75Z" fill="black"/>
</svg>
